<svg width="763" height="95" viewBox="0 0 763 95" fill="none" xmlns="http://www.w3.org/2000/svg">
<mask id="path-1-outside-1_22_8" maskUnits="userSpaceOnUse" x="-5" y="-5" width="773" height="105" fill="black">
<rect fill="white" x="-5" y="-5" width="773" height="105"/>
<path d="M30 4.4C39.0667 4.4 46.2 7.06666 51.4 12.4C56.6667 17.6667 59.3 25.3 59.3 35.3V75H52V54.4H8V75H0.8V35.3C0.8 25.3 3.4 17.6667 8.6 12.4C13.8667 7.06666 21 4.4 30 4.4ZM52 48V34.6C52 26.8 50.0667 20.9333 46.2 17C42.3333 13 36.9333 11 30 11C23.0667 11 17.6667 13 13.8 17C9.93333 20.9333 8 26.8 8 34.6V48H52ZM124.702 17.9C117.835 13.9 110.235 11.6 101.902 11V75H94.5016V11C86.3016 11.5333 78.6682 13.8333 71.6016 17.9L68.9016 12.1C77.5682 6.96666 87.3016 4.4 98.1016 4.4C109.102 4.4 118.868 6.96666 127.402 12.1L124.702 17.9ZM142.93 32.7C144.597 29.1667 147.064 26.5 150.33 24.7C153.664 22.9 157.764 22 162.63 22V28.9L160.93 28.8C155.397 28.8 151.064 30.5 147.93 33.9C144.797 37.3 143.23 42.0667 143.23 48.2V75H136.13V22.4H142.93V32.7ZM175.486 22.4H182.586V75H175.486V22.4ZM179.086 10.9C177.619 10.9 176.386 10.4 175.386 9.4C174.386 8.4 173.886 7.2 173.886 5.8C173.886 4.46666 174.386 3.3 175.386 2.29999C176.386 1.3 177.619 0.799996 179.086 0.799996C180.553 0.799996 181.786 1.3 182.786 2.29999C183.786 3.23333 184.286 4.36666 184.286 5.7C184.286 7.16667 183.786 8.4 182.786 9.4C181.786 10.4 180.553 10.9 179.086 10.9ZM250.341 22.4V75H243.541V64.6C241.408 68.1333 238.575 70.8333 235.041 72.7C231.575 74.5667 227.641 75.5 223.241 75.5C218.308 75.5 213.841 74.3667 209.841 72.1C205.841 69.8333 202.708 66.6667 200.441 62.6C198.175 58.5333 197.041 53.9 197.041 48.7C197.041 43.5 198.175 38.8667 200.441 34.8C202.708 30.7333 205.841 27.6 209.841 25.4C213.841 23.1333 218.308 22 223.241 22C227.508 22 231.341 22.9 234.741 24.7C238.208 26.4333 241.041 29 243.241 32.4V22.4H250.341ZM223.841 69.2C227.508 69.2 230.808 68.3667 233.741 66.7C236.741 64.9667 239.075 62.5333 240.741 59.4C242.475 56.2667 243.341 52.7 243.341 48.7C243.341 44.7 242.475 41.1333 240.741 38C239.075 34.8667 236.741 32.4667 233.741 30.8C230.808 29.0667 227.508 28.2 223.841 28.2C220.108 28.2 216.741 29.0667 213.741 30.8C210.808 32.4667 208.475 34.8667 206.741 38C205.075 41.1333 204.241 44.7 204.241 48.7C204.241 52.7 205.075 56.2667 206.741 59.4C208.475 62.5333 210.808 64.9667 213.741 66.7C216.741 68.3667 220.108 69.2 223.841 69.2ZM296.915 22C303.515 22 308.748 23.9333 312.615 27.8C316.548 31.6 318.515 37.1667 318.515 44.5V75H311.415V45.2C311.415 39.7333 310.048 35.5667 307.315 32.7C304.582 29.8333 300.682 28.4 295.615 28.4C289.948 28.4 285.448 30.1 282.115 33.5C278.848 36.8333 277.215 41.4667 277.215 47.4V75H270.115V22.4H276.915V32.1C278.848 28.9 281.515 26.4333 284.915 24.7C288.382 22.9 292.382 22 296.915 22ZM369.891 75.6C362.957 75.6 356.657 74.0667 350.991 71C345.391 67.8667 340.991 63.6 337.791 58.2C334.657 52.8 333.091 46.7333 333.091 40C333.091 33.2667 334.657 27.2 337.791 21.8C340.991 16.4 345.391 12.1667 350.991 9.1C356.657 5.96666 362.957 4.4 369.891 4.4C376.824 4.4 383.057 5.93333 388.591 9C394.191 12.0667 398.591 16.3333 401.791 21.8C404.991 27.2 406.591 33.2667 406.591 40C406.591 46.7333 404.991 52.8333 401.791 58.3C398.591 63.7 394.191 67.9333 388.591 71C383.057 74.0667 376.824 75.6 369.891 75.6ZM369.891 69C375.424 69 380.424 67.7667 384.891 65.3C389.357 62.7667 392.857 59.3 395.391 54.9C397.924 50.4333 399.191 45.4667 399.191 40C399.191 34.5333 397.924 29.6 395.391 25.2C392.857 20.7333 389.357 17.2667 384.891 14.8C380.424 12.2667 375.424 11 369.891 11C364.357 11 359.324 12.2667 354.791 14.8C350.324 17.2667 346.791 20.7333 344.191 25.2C341.657 29.6 340.391 34.5333 340.391 40C340.391 45.4667 341.657 50.4333 344.191 54.9C346.791 59.3 350.324 62.7667 354.791 65.3C359.324 67.7667 364.357 69 369.891 69ZM469.677 0.799996V75H462.877V64.6C460.744 68.1333 457.911 70.8333 454.377 72.7C450.911 74.5667 446.977 75.5 442.577 75.5C437.644 75.5 433.177 74.3667 429.177 72.1C425.177 69.8333 422.044 66.6667 419.777 62.6C417.511 58.5333 416.377 53.9 416.377 48.7C416.377 43.5 417.511 38.8667 419.777 34.8C422.044 30.7333 425.177 27.6 429.177 25.4C433.177 23.1333 437.644 22 442.577 22C446.844 22 450.677 22.9 454.077 24.7C457.544 26.4333 460.377 29 462.577 32.4V0.799996H469.677ZM443.177 69.2C446.844 69.2 450.144 68.3667 453.077 66.7C456.077 64.9667 458.411 62.5333 460.077 59.4C461.811 56.2667 462.677 52.7 462.677 48.7C462.677 44.7 461.811 41.1333 460.077 38C458.411 34.8667 456.077 32.4667 453.077 30.8C450.144 29.0667 446.844 28.2 443.177 28.2C439.444 28.2 436.077 29.0667 433.077 30.8C430.144 32.4667 427.811 34.8667 426.077 38C424.411 41.1333 423.577 44.7 423.577 48.7C423.577 52.7 424.411 56.2667 426.077 59.4C427.811 62.5333 430.144 64.9667 433.077 66.7C436.077 68.3667 439.444 69.2 443.177 69.2ZM536.851 22.4V68.6C536.851 77.5333 534.817 84.1333 530.751 88.4C526.684 92.7333 520.551 94.9 512.351 94.9C507.751 94.9 503.384 94.1667 499.251 92.7C495.184 91.3 491.884 89.3333 489.351 86.8L492.951 81.4C495.217 83.6667 498.017 85.4333 501.351 86.7C504.684 87.9667 508.251 88.6 512.051 88.6C518.117 88.6 522.584 87.0333 525.451 83.9C528.317 80.8333 529.751 76.0333 529.751 69.5V63.4C527.884 66.4667 525.317 68.8333 522.051 70.5C518.851 72.1667 515.217 73 511.151 73C504.284 73 498.851 71.1 494.851 67.3C490.917 63.4333 488.951 57.8 488.951 50.4V22.4H496.051V49.7C496.051 55.2333 497.417 59.4333 500.151 62.3C502.884 65.1667 506.784 66.6 511.851 66.6C517.384 66.6 521.751 64.9333 524.951 61.6C528.151 58.2 529.751 53.5 529.751 47.5V22.4H536.851ZM570.836 75.5C566.569 75.5 562.469 74.9 558.536 73.7C554.669 72.4333 551.636 70.8667 549.436 69L552.636 63.4C554.836 65.1333 557.603 66.5667 560.936 67.7C564.269 68.7667 567.736 69.3 571.336 69.3C576.136 69.3 579.669 68.5667 581.936 67.1C584.269 65.5667 585.436 63.4333 585.436 60.7C585.436 58.7667 584.803 57.2667 583.536 56.2C582.269 55.0667 580.669 54.2333 578.736 53.7C576.803 53.1 574.236 52.5333 571.036 52C566.769 51.2 563.336 50.4 560.736 49.6C558.136 48.7333 555.903 47.3 554.036 45.3C552.236 43.3 551.336 40.5333 551.336 37C551.336 32.6 553.169 29 556.836 26.2C560.503 23.4 565.603 22 572.136 22C575.536 22 578.936 22.4667 582.336 23.4C585.736 24.2667 588.536 25.4333 590.736 26.9L587.636 32.6C583.303 29.6 578.136 28.1 572.136 28.1C567.603 28.1 564.169 28.9 561.836 30.5C559.569 32.1 558.436 34.2 558.436 36.8C558.436 38.8 559.069 40.4 560.336 41.6C561.669 42.8 563.303 43.7 565.236 44.3C567.169 44.8333 569.836 45.4 573.236 46C577.436 46.8 580.803 47.6 583.336 48.4C585.869 49.2 588.036 50.5667 589.836 52.5C591.636 54.4333 592.536 57.1 592.536 60.5C592.536 65.1 590.603 68.7667 586.736 71.5C582.936 74.1667 577.636 75.5 570.836 75.5ZM619.762 75.5C615.495 75.5 611.395 74.9 607.462 73.7C603.595 72.4333 600.562 70.8667 598.362 69L601.562 63.4C603.762 65.1333 606.528 66.5667 609.862 67.7C613.195 68.7667 616.662 69.3 620.262 69.3C625.062 69.3 628.595 68.5667 630.862 67.1C633.195 65.5667 634.362 63.4333 634.362 60.7C634.362 58.7667 633.728 57.2667 632.462 56.2C631.195 55.0667 629.595 54.2333 627.662 53.7C625.728 53.1 623.162 52.5333 619.962 52C615.695 51.2 612.262 50.4 609.662 49.6C607.062 48.7333 604.828 47.3 602.962 45.3C601.162 43.3 600.262 40.5333 600.262 37C600.262 32.6 602.095 29 605.762 26.2C609.428 23.4 614.528 22 621.062 22C624.462 22 627.862 22.4667 631.262 23.4C634.662 24.2667 637.462 25.4333 639.662 26.9L636.562 32.6C632.228 29.6 627.062 28.1 621.062 28.1C616.528 28.1 613.095 28.9 610.762 30.5C608.495 32.1 607.362 34.2 607.362 36.8C607.362 38.8 607.995 40.4 609.262 41.6C610.595 42.8 612.228 43.7 614.162 44.3C616.095 44.8333 618.762 45.4 622.162 46C626.362 46.8 629.728 47.6 632.262 48.4C634.795 49.2 636.962 50.5667 638.762 52.5C640.562 54.4333 641.462 57.1 641.462 60.5C641.462 65.1 639.528 68.7667 635.662 71.5C631.862 74.1667 626.562 75.5 619.762 75.5ZM677.088 69.2C680.354 69.2 683.354 68.6333 686.088 67.5C688.888 66.3 691.254 64.5667 693.188 62.3L697.188 66.9C694.854 69.7 691.954 71.8333 688.488 73.3C685.021 74.7667 681.188 75.5 676.988 75.5C671.588 75.5 666.788 74.3667 662.588 72.1C658.388 69.7667 655.121 66.5667 652.788 62.5C650.454 58.4333 649.288 53.8333 649.288 48.7C649.288 43.5667 650.388 38.9667 652.588 34.9C654.854 30.8333 657.954 27.6667 661.888 25.4C665.821 23.1333 670.288 22 675.288 22C679.954 22 684.154 23.0667 687.888 25.2C691.688 27.3333 694.688 30.3 696.888 34.1C699.154 37.9 700.354 42.2333 700.488 47.1L657.288 55.5C658.621 59.7667 661.021 63.1333 664.488 65.6C668.021 68 672.221 69.2 677.088 69.2ZM675.288 28.1C671.621 28.1 668.321 28.9667 665.388 30.7C662.521 32.3667 660.254 34.7333 658.588 37.8C656.988 40.8 656.188 44.2667 656.188 48.2C656.188 49.2 656.221 49.9333 656.288 50.4L693.388 43.2C692.588 38.8 690.554 35.2 687.288 32.4C684.021 29.5333 680.021 28.1 675.288 28.1ZM762.339 22.4V68.6C762.339 77.5333 760.306 84.1333 756.239 88.4C752.172 92.7333 746.039 94.9 737.839 94.9C733.239 94.9 728.872 94.1667 724.739 92.7C720.672 91.3 717.372 89.3333 714.839 86.8L718.439 81.4C720.706 83.6667 723.506 85.4333 726.839 86.7C730.172 87.9667 733.739 88.6 737.539 88.6C743.606 88.6 748.072 87.0333 750.939 83.9C753.806 80.8333 755.239 76.0333 755.239 69.5V63.4C753.372 66.4667 750.806 68.8333 747.539 70.5C744.339 72.1667 740.706 73 736.639 73C729.772 73 724.339 71.1 720.339 67.3C716.406 63.4333 714.439 57.8 714.439 50.4V22.4H721.539V49.7C721.539 55.2333 722.906 59.4333 725.639 62.3C728.372 65.1667 732.272 66.6 737.339 66.6C742.872 66.6 747.239 64.9333 750.439 61.6C753.639 58.2 755.239 53.5 755.239 47.5V22.4H762.339Z"/>
</mask>
<path d="M51.4 12.4L47.82 15.8905L47.8421 15.9132L47.8645 15.9355L51.4 12.4ZM59.3 75V80H64.3V75H59.3ZM52 75H47V80H52V75ZM52 54.4H57V49.4H52V54.4ZM8 54.4V49.4H3V54.4H8ZM8 75V80H13V75H8ZM0.8 75H-4.2V80H0.8V75ZM8.6 12.4L5.0423 8.88677L5.04202 8.88705L8.6 12.4ZM52 48V53H57V48H52ZM46.2 17L42.6051 20.4751L42.6197 20.4902L42.6344 20.5052L46.2 17ZM13.8 17L17.3656 20.5052L17.3803 20.4902L17.3949 20.4751L13.8 17ZM8 48H3V53H8V48ZM30 9.4C38.0319 9.4 43.7593 11.7257 47.82 15.8905L54.98 8.90949C48.6407 2.40765 40.1015 -0.600003 30 -0.600003V9.4ZM47.8645 15.9355C51.9075 19.9785 54.3 26.1579 54.3 35.3H64.3C64.3 24.4421 61.4259 15.3548 54.9355 8.86446L47.8645 15.9355ZM54.3 35.3V75H64.3V35.3H54.3ZM59.3 70H52V80H59.3V70ZM57 75V54.4H47V75H57ZM52 49.4H8V59.4H52V49.4ZM3 54.4V75H13V54.4H3ZM8 70H0.8V80H8V70ZM5.8 75V35.3H-4.2V75H5.8ZM5.8 35.3C5.8 26.1412 8.16862 19.9534 12.158 15.9129L5.04202 8.88705C-1.36862 15.3799 -4.2 24.4588 -4.2 35.3H5.8ZM12.1577 15.9132C16.3004 11.7181 22.0492 9.4 30 9.4V-0.600003C19.9508 -0.600003 11.4329 2.41523 5.0423 8.88677L12.1577 15.9132ZM57 48V34.6H47V48H57ZM57 34.6C57 26.0364 54.8749 18.6922 49.7656 13.4948L42.6344 20.5052C45.2584 23.1745 47 27.5636 47 34.6H57ZM49.7949 13.5249C44.7652 8.32172 37.934 6 30 6V16C35.9327 16 39.9015 17.6783 42.6051 20.4751L49.7949 13.5249ZM30 6C22.066 6 15.2348 8.32172 10.2051 13.5249L17.3949 20.4751C20.0985 17.6783 24.0673 16 30 16V6ZM10.2344 13.4948C5.12511 18.6922 3 26.0364 3 34.6H13C13 27.5636 14.7416 23.1745 17.3656 20.5052L10.2344 13.4948ZM3 34.6V48H13V34.6H3ZM8 53H52V43H8V53ZM124.702 17.9L122.185 22.2204L126.921 24.9795L129.234 20.0101L124.702 17.9ZM101.902 11L102.261 6.01291L96.9016 5.62705V11H101.902ZM101.902 75V80H106.902V75H101.902ZM94.5016 75H89.5016V80H94.5016V75ZM94.5016 11H99.5016V5.66423L94.177 6.01054L94.5016 11ZM71.6016 17.9L67.0687 20.0101L69.3697 24.9532L74.0955 22.2336L71.6016 17.9ZM68.9016 12.1L66.3535 7.798L62.4578 10.1054L64.3687 14.2101L68.9016 12.1ZM127.402 12.1L131.934 14.2101L133.832 10.1335L129.979 7.81549L127.402 12.1ZM127.218 13.5796C119.659 9.17597 111.315 6.66478 102.261 6.01291L101.542 15.9871C109.155 16.5352 116.011 18.624 122.185 22.2204L127.218 13.5796ZM96.9016 11V75H106.902V11H96.9016ZM101.902 70H94.5016V80H101.902V70ZM99.5016 75V11H89.5016V75H99.5016ZM94.177 6.01054C85.2195 6.59314 76.8431 9.11481 69.1077 13.5663L74.0955 22.2336C80.4933 18.5518 87.3836 16.4735 94.8261 15.9895L94.177 6.01054ZM76.1345 15.7898L73.4345 9.98985L64.3687 14.2101L67.0687 20.0101L76.1345 15.7898ZM71.4497 16.402C79.2891 11.7586 88.131 9.4 98.1016 9.4V-0.600003C86.4721 -0.600003 75.8473 2.17472 66.3535 7.798L71.4497 16.402ZM98.1016 9.4C108.291 9.4 117.149 11.7673 124.824 16.3845L129.979 7.81549C120.588 2.16603 109.912 -0.600003 98.1016 -0.600003V9.4ZM122.869 9.98985L120.169 15.7899L129.234 20.0101L131.934 14.2101L122.869 9.98985ZM142.93 32.7H137.93L147.453 34.8331L142.93 32.7ZM150.33 24.7L147.955 20.3005L147.936 20.3106L147.917 20.3208L150.33 24.7ZM162.63 22H167.63V17H162.63V22ZM162.63 28.9L162.337 33.8914L167.63 34.2028V28.9H162.63ZM160.93 28.8L161.224 23.8086L161.077 23.8H160.93V28.8ZM147.93 33.9L151.607 37.2884L151.607 37.2884L147.93 33.9ZM143.23 75V80H148.23V75H143.23ZM136.13 75H131.13V80H136.13V75ZM136.13 22.4V17.4H131.13V22.4H136.13ZM142.93 22.4H147.93V17.4H142.93V22.4ZM147.453 34.8331C148.693 32.2037 150.444 30.3461 152.743 29.0792L147.917 20.3208C143.683 22.6539 140.501 26.1296 138.408 30.5669L147.453 34.8331ZM152.706 29.0995C155.131 27.7901 158.363 27 162.63 27V17C157.164 17 152.196 18.0099 147.955 20.3005L152.706 29.0995ZM157.63 22V28.9H167.63V22H157.63ZM162.924 23.9086L161.224 23.8086L160.637 33.7914L162.337 33.8914L162.924 23.9086ZM160.93 23.8C154.299 23.8 148.519 25.8838 144.254 30.5116L151.607 37.2884C153.609 35.1162 156.496 33.8 160.93 33.8V23.8ZM144.254 30.5116C140.023 35.1027 138.23 41.2303 138.23 48.2H148.23C148.23 42.9031 149.572 39.4973 151.607 37.2884L144.254 30.5116ZM138.23 48.2V75H148.23V48.2H138.23ZM143.23 70H136.13V80H143.23V70ZM141.13 75V22.4H131.13V75H141.13ZM136.13 27.4H142.93V17.4H136.13V27.4ZM137.93 22.4V32.7H147.93V22.4H137.93ZM175.486 22.4V17.4H170.486V22.4H175.486ZM182.586 22.4H187.586V17.4H182.586V22.4ZM182.586 75V80H187.586V75H182.586ZM175.486 75H170.486V80H175.486V75ZM175.386 2.29999L171.85 -1.23554L171.85 -1.23553L175.386 2.29999ZM182.786 2.29999L179.25 5.83553L179.311 5.89647L179.374 5.95527L182.786 2.29999ZM175.486 27.4H182.586V17.4H175.486V27.4ZM177.586 22.4V75H187.586V22.4H177.586ZM182.586 70H175.486V80H182.586V70ZM180.486 75V22.4H170.486V75H180.486ZM179.086 5.9C179.004 5.9 178.958 5.89309 178.94 5.88984C178.924 5.88676 178.926 5.88573 178.939 5.8913C178.953 5.89697 178.964 5.90327 178.967 5.90555C178.97 5.90741 178.954 5.89738 178.921 5.86446L171.85 12.9355C173.826 14.9113 176.348 15.9 179.086 15.9V5.9ZM178.921 5.86446C178.878 5.82138 178.862 5.79773 178.861 5.79581C178.86 5.79468 178.868 5.80589 178.876 5.82692C178.885 5.84802 178.889 5.86394 178.89 5.86826C178.89 5.87172 178.886 5.85121 178.886 5.8H168.886C168.886 8.54114 169.923 11.0086 171.85 12.9355L178.921 5.86446ZM178.886 5.8C178.886 5.78086 178.888 5.78702 178.883 5.81183C178.88 5.82353 178.877 5.83728 178.872 5.85231C178.868 5.86734 178.862 5.88163 178.857 5.89459C178.851 5.90752 178.846 5.91728 178.843 5.92352C178.839 5.92972 178.838 5.93098 178.841 5.92729C178.845 5.92032 178.868 5.88878 178.921 5.83552L171.85 -1.23553C169.976 0.639021 168.886 3.0539 168.886 5.8H178.886ZM178.921 5.83553C178.954 5.80262 178.97 5.79258 178.967 5.79444C178.964 5.79673 178.953 5.80302 178.939 5.80869C178.926 5.81426 178.924 5.81323 178.94 5.81016C178.958 5.8069 179.004 5.8 179.086 5.8V-4.2C176.348 -4.2 173.826 -3.21135 171.85 -1.23554L178.921 5.83553ZM179.086 5.8C179.168 5.8 179.214 5.8069 179.232 5.81016C179.248 5.81323 179.246 5.81426 179.232 5.80869C179.218 5.80302 179.208 5.79673 179.204 5.79444C179.202 5.79258 179.217 5.80262 179.25 5.83553L186.321 -1.23554C184.346 -3.21135 181.824 -4.2 179.086 -4.2V5.8ZM179.374 5.95527C179.407 5.98547 179.409 5.99302 179.396 5.97447C179.382 5.95494 179.359 5.91879 179.336 5.86819C179.314 5.81739 179.3 5.76919 179.292 5.73081C179.284 5.69342 179.286 5.68055 179.286 5.7H189.286C189.286 2.94061 188.181 0.495939 186.198 -1.35528L179.374 5.95527ZM179.286 5.7C179.286 5.78189 179.279 5.82821 179.276 5.8458C179.273 5.86239 179.272 5.86021 179.277 5.84647C179.283 5.83248 179.289 5.82187 179.291 5.81847C179.293 5.8157 179.283 5.83155 179.25 5.86446L186.321 12.9355C188.297 10.9597 189.286 8.43783 189.286 5.7H179.286ZM179.25 5.86446C179.217 5.89738 179.202 5.90741 179.204 5.90555C179.208 5.90327 179.218 5.89697 179.232 5.8913C179.246 5.88573 179.248 5.88676 179.232 5.88984C179.214 5.89309 179.168 5.9 179.086 5.9V15.9C181.824 15.9 184.346 14.9113 186.321 12.9355L179.25 5.86446ZM250.341 22.4H255.341V17.4H250.341V22.4ZM250.341 75V80H255.341V75H250.341ZM243.541 75H238.541V80H243.541V75ZM243.541 64.6H248.541V46.6451L239.261 62.0157L243.541 64.6ZM235.041 72.7L232.706 68.279L232.688 68.2883L232.671 68.2976L235.041 72.7ZM209.841 72.1L212.306 67.7499L209.841 72.1ZM200.441 62.6L204.809 60.1657L204.809 60.1657L200.441 62.6ZM200.441 34.8L204.809 37.2343L204.809 37.2343L200.441 34.8ZM209.841 25.4L212.251 29.7811L212.279 29.7658L212.306 29.7501L209.841 25.4ZM234.741 24.7L232.402 29.1189L232.453 29.1461L232.505 29.1721L234.741 24.7ZM243.241 32.4L239.044 35.1163L248.241 49.3311V32.4H243.241ZM243.241 22.4V17.4H238.241V22.4H243.241ZM233.741 66.7L236.211 71.0473L236.227 71.0384L236.243 71.0293L233.741 66.7ZM240.741 59.4L236.366 56.9797L236.346 57.0157L236.327 57.0519L240.741 59.4ZM240.741 38L236.327 40.3481L236.346 40.3843L236.366 40.4203L240.741 38ZM233.741 30.8L231.198 35.1046L231.255 35.1385L231.313 35.1708L233.741 30.8ZM213.741 30.8L216.211 35.1473L216.227 35.1384L216.243 35.1293L213.741 30.8ZM206.741 38L202.366 35.5797L202.346 35.6157L202.327 35.6519L206.741 38ZM206.741 59.4L202.327 61.7481L202.346 61.7843L202.366 61.8203L206.741 59.4ZM213.741 66.7L211.198 71.0046L211.255 71.0385L211.313 71.0708L213.741 66.7ZM245.341 22.4V75H255.341V22.4H245.341ZM250.341 70H243.541V80H250.341V70ZM248.541 75V64.6H238.541V75H248.541ZM239.261 62.0157C237.581 64.7983 235.409 66.851 232.706 68.279L237.377 77.121C241.741 74.8157 245.235 71.4683 247.822 67.1843L239.261 62.0157ZM232.671 68.2976C230.015 69.7277 226.913 70.5 223.241 70.5V80.5C228.37 80.5 233.134 79.4057 237.412 77.1024L232.671 68.2976ZM223.241 70.5C219.107 70.5 215.5 69.5596 212.306 67.7499L207.376 76.4501C212.183 79.1738 217.509 80.5 223.241 80.5V70.5ZM212.306 67.7499C209.115 65.9413 206.635 63.4421 204.809 60.1657L196.074 65.0343C198.781 69.8912 202.568 73.7254 207.376 76.4501L212.306 67.7499ZM204.809 60.1657C203.004 56.9273 202.041 53.1495 202.041 48.7H192.041C192.041 54.6505 193.346 60.1394 196.074 65.0343L204.809 60.1657ZM202.041 48.7C202.041 44.2505 203.004 40.4727 204.809 37.2343L196.074 32.3657C193.346 37.2606 192.041 42.7495 192.041 48.7H202.041ZM204.809 37.2343C206.628 33.9703 209.09 31.5194 212.251 29.7811L207.432 21.0189C202.592 23.6806 198.788 27.4964 196.074 32.3657L204.809 37.2343ZM212.306 29.7501C215.5 27.9404 219.107 27 223.241 27V17C217.509 17 212.183 18.3262 207.376 21.0499L212.306 29.7501ZM223.241 27C226.783 27 229.799 27.7407 232.402 29.1189L237.081 20.2811C232.884 18.0593 228.233 17 223.241 17V27ZM232.505 29.1721C235.136 30.4876 237.306 32.4312 239.044 35.1163L247.439 29.6837C244.777 25.5688 241.28 22.379 236.977 20.2279L232.505 29.1721ZM248.241 32.4V22.4H238.241V32.4H248.241ZM243.241 27.4H250.341V17.4H243.241V27.4ZM223.841 74.2C228.297 74.2 232.461 73.1784 236.211 71.0473L231.271 62.3527C229.155 63.5549 226.719 64.2 223.841 64.2V74.2ZM236.243 71.0293C240.074 68.8158 243.061 65.6867 245.156 61.7481L236.327 57.0519C235.089 59.38 233.409 61.1175 231.24 62.3707L236.243 71.0293ZM245.117 61.8203C247.306 57.8625 248.341 53.4457 248.341 48.7H238.341C238.341 51.9543 237.643 54.6708 236.366 56.9797L245.117 61.8203ZM248.341 48.7C248.341 43.9543 247.306 39.5375 245.117 35.5797L236.366 40.4203C237.643 42.7292 238.341 45.4457 238.341 48.7H248.341ZM245.156 35.6519C243.052 31.6976 240.043 28.581 236.17 26.4292L231.313 35.1708C233.44 36.3523 235.097 38.0358 236.327 40.3481L245.156 35.6519ZM236.285 26.4954C232.523 24.2722 228.332 23.2 223.841 23.2V33.2C226.684 33.2 229.093 33.8611 231.198 35.1046L236.285 26.4954ZM223.841 23.2C219.3 23.2 215.059 24.2641 211.24 26.4707L216.243 35.1293C218.424 33.8692 220.916 33.2 223.841 33.2V23.2ZM211.271 26.4527C207.488 28.6023 204.517 31.6925 202.366 35.5797L211.117 40.4203C212.433 38.0409 214.128 36.331 216.211 35.1473L211.271 26.4527ZM202.327 35.6519C200.229 39.5959 199.241 43.9866 199.241 48.7H209.241C209.241 45.4134 209.92 42.6708 211.156 40.3481L202.327 35.6519ZM199.241 48.7C199.241 53.4134 200.229 57.8041 202.327 61.7481L211.156 57.0519C209.92 54.7292 209.241 51.9866 209.241 48.7H199.241ZM202.366 61.8203C204.508 65.6924 207.457 68.7942 211.198 71.0046L216.285 62.3954C214.159 61.1391 212.441 59.3743 211.117 56.9797L202.366 61.8203ZM211.313 71.0708C215.12 73.1858 219.335 74.2 223.841 74.2V64.2C220.881 64.2 218.363 63.5475 216.17 62.3292L211.313 71.0708ZM312.615 27.8L309.079 31.3355L309.11 31.366L309.141 31.396L312.615 27.8ZM318.515 75V80H323.515V75H318.515ZM311.415 75H306.415V80H311.415V75ZM307.315 32.7L303.696 36.1504L303.696 36.1504L307.315 32.7ZM282.115 33.5L278.544 29.9996L278.544 30.0004L282.115 33.5ZM277.215 75V80H282.215V75H277.215ZM270.115 75H265.115V80H270.115V75ZM270.115 22.4V17.4H265.115V22.4H270.115ZM276.915 22.4H281.915V17.4H276.915V22.4ZM276.915 32.1H271.915V50.0449L281.194 34.6856L276.915 32.1ZM284.915 24.7L287.186 29.1545L287.202 29.1461L287.219 29.1375L284.915 24.7ZM296.915 27C302.482 27 306.339 28.5953 309.079 31.3355L316.15 24.2645C311.157 19.2714 304.548 17 296.915 17V27ZM309.141 31.396C311.801 33.966 313.515 38.0435 313.515 44.5H323.515C323.515 36.2898 321.295 29.234 316.089 24.204L309.141 31.396ZM313.515 44.5V75H323.515V44.5H313.515ZM318.515 70H311.415V80H318.515V70ZM316.415 75V45.2H306.415V75H316.415ZM316.415 45.2C316.415 38.9432 314.845 33.3514 310.934 29.2496L303.696 36.1504C305.252 37.7819 306.415 40.5234 306.415 45.2H316.415ZM310.934 29.2496C307.011 25.1352 301.646 23.4 295.615 23.4V33.4C299.717 33.4 302.153 34.5314 303.696 36.1504L310.934 29.2496ZM295.615 23.4C288.88 23.4 282.995 25.4605 278.544 29.9996L285.685 37.0004C287.902 34.7395 291.017 33.4 295.615 33.4V23.4ZM278.544 30.0004C274.13 34.5039 272.215 40.5298 272.215 47.4H282.215C282.215 42.4035 283.566 39.1628 285.686 36.9996L278.544 30.0004ZM272.215 47.4V75H282.215V47.4H272.215ZM277.215 70H270.115V80H277.215V70ZM275.115 75V22.4H265.115V75H275.115ZM270.115 27.4H276.915V17.4H270.115V27.4ZM271.915 22.4V32.1H281.915V22.4H271.915ZM281.194 34.6856C282.635 32.301 284.598 30.4736 287.186 29.1545L282.644 20.2455C278.431 22.393 275.061 25.499 272.635 29.5144L281.194 34.6856ZM287.219 29.1375C289.867 27.7623 293.054 27 296.915 27V17C291.709 17 286.896 18.0377 282.611 20.2625L287.219 29.1375ZM350.991 71L348.549 75.3634L348.58 75.3806L348.611 75.3974L350.991 71ZM337.791 58.2L333.466 60.7094L333.477 60.7293L333.489 60.749L337.791 58.2ZM337.791 21.8L333.489 19.251L333.477 19.2707L333.466 19.2906L337.791 21.8ZM350.991 9.1L353.392 13.4855L353.401 13.4806L353.41 13.4756L350.991 9.1ZM388.591 9L386.167 13.3733L386.178 13.3794L386.189 13.3855L388.591 9ZM401.791 21.8L397.476 24.3259L397.482 24.3375L397.489 24.349L401.791 21.8ZM401.791 58.3L406.092 60.849L406.099 60.8375L406.106 60.8259L401.791 58.3ZM388.591 71L386.189 66.6145L386.178 66.6206L386.167 66.6267L388.591 71ZM384.891 65.3L387.308 69.6769L387.333 69.6632L387.357 69.6492L384.891 65.3ZM395.391 54.9L399.724 57.3948L399.732 57.3808L399.74 57.3667L395.391 54.9ZM395.391 25.2L391.041 27.6667L391.049 27.6808L391.058 27.6948L395.391 25.2ZM384.891 14.8L382.424 19.1492L382.449 19.1632L382.474 19.1769L384.891 14.8ZM354.791 14.8L357.208 19.1769L357.219 19.1708L357.23 19.1647L354.791 14.8ZM344.191 25.2L339.869 22.6847L339.863 22.6949L339.858 22.7052L344.191 25.2ZM344.191 54.9L339.841 57.3667L339.863 57.4054L339.886 57.4436L344.191 54.9ZM354.791 65.3L352.324 69.6492L352.362 69.6709L352.401 69.6919L354.791 65.3ZM369.891 70.6C363.723 70.6 358.251 69.244 353.37 66.6026L348.611 75.3974C355.063 78.8894 362.191 80.6 369.891 80.6V70.6ZM353.432 66.6366C348.583 63.9235 344.832 60.2753 342.092 55.651L333.489 60.749C337.149 66.9247 342.198 71.8098 348.549 75.3634L353.432 66.6366ZM342.115 55.6906C339.459 51.1125 338.091 45.9235 338.091 40H328.091C328.091 47.5432 329.856 54.4875 333.466 60.7094L342.115 55.6906ZM338.091 40C338.091 34.0765 339.459 28.8875 342.115 24.3094L333.466 19.2906C329.856 25.5125 328.091 32.4568 328.091 40H338.091ZM342.092 24.349C344.827 19.7343 348.565 16.1292 353.392 13.4855L348.589 4.71451C342.217 8.20412 337.155 13.0657 333.489 19.251L342.092 24.349ZM353.41 13.4756C358.284 10.7807 363.742 9.4 369.891 9.4V-0.600003C362.173 -0.600003 355.031 1.15262 348.571 4.72436L353.41 13.4756ZM369.891 9.4C376.059 9.4 381.445 10.7563 386.167 13.3733L391.014 4.62673C384.67 1.11039 377.589 -0.600003 369.891 -0.600003V9.4ZM386.189 13.3855C391.001 16.0207 394.737 19.6475 397.476 24.3259L406.106 19.2741C402.444 13.0192 397.38 8.11262 390.992 4.61452L386.189 13.3855ZM397.489 24.349C400.199 28.9212 401.591 34.096 401.591 40H411.591C411.591 32.4373 409.783 25.4788 406.092 19.251L397.489 24.349ZM401.591 40C401.591 45.9035 400.199 51.1223 397.476 55.7741L406.106 60.8259C409.783 54.5444 411.591 47.5631 411.591 40H401.591ZM397.489 55.751C394.755 60.3657 391.017 63.9708 386.189 66.6145L390.992 75.3855C397.365 71.8959 402.427 67.0343 406.092 60.849L397.489 55.751ZM386.167 66.6267C381.445 69.2437 376.059 70.6 369.891 70.6V80.6C377.589 80.6 384.67 78.8896 391.014 75.3733L386.167 66.6267ZM369.891 74C376.196 74 382.039 72.5863 387.308 69.6769L382.474 60.9231C378.809 62.947 374.652 64 369.891 64V74ZM387.357 69.6492C392.591 66.6807 396.74 62.5777 399.724 57.3948L391.058 52.4052C388.975 56.0223 386.123 58.8526 382.424 60.9508L387.357 69.6492ZM399.74 57.3667C402.727 52.0992 404.191 46.2736 404.191 40H394.191C394.191 44.6598 393.121 48.7675 391.041 52.4333L399.74 57.3667ZM404.191 40C404.191 33.7271 402.727 27.922 399.724 22.7052L391.058 27.6948C393.121 31.278 394.191 35.3396 394.191 40H404.191ZM399.74 22.7333C396.754 17.4692 392.588 13.3389 387.308 10.4231L382.474 19.1769C386.127 21.1944 388.96 23.9975 391.041 27.6667L399.74 22.7333ZM387.357 10.4508C382.081 7.45802 376.219 6 369.891 6V16C374.628 16 378.767 17.0753 382.424 19.1492L387.357 10.4508ZM369.891 6C363.561 6 357.679 7.45805 352.352 10.4353L357.23 19.1647C360.969 17.0753 365.153 16 369.891 16V6ZM352.374 10.4231C347.105 13.3326 342.918 17.4474 339.869 22.6847L348.512 27.7153C350.663 24.0193 353.543 21.2007 357.208 19.1769L352.374 10.4231ZM339.858 22.7052C336.854 27.922 335.391 33.7271 335.391 40H345.391C345.391 35.3396 346.461 31.278 348.524 27.6948L339.858 22.7052ZM335.391 40C335.391 46.2736 336.854 52.0992 339.841 57.3667L348.54 52.4333C346.461 48.7675 345.391 44.6598 345.391 40H335.391ZM339.886 57.4436C342.933 62.5995 347.101 66.687 352.324 69.6492L357.257 60.9508C353.547 58.8463 350.649 56.0005 348.495 52.3564L339.886 57.4436ZM352.401 69.6919C357.72 72.5862 363.584 74 369.891 74V64C365.13 64 360.928 62.9471 357.18 60.9081L352.401 69.6919ZM469.677 0.799996H474.677V-4.2H469.677V0.799996ZM469.677 75V80H474.677V75H469.677ZM462.877 75H457.877V80H462.877V75ZM462.877 64.6H467.877V46.6451L458.597 62.0157L462.877 64.6ZM454.377 72.7L452.042 68.279L452.024 68.2883L452.007 68.2976L454.377 72.7ZM429.177 72.1L431.642 67.7499L429.177 72.1ZM419.777 62.6L424.145 60.1657L424.145 60.1657L419.777 62.6ZM419.777 34.8L424.145 37.2343L424.145 37.2343L419.777 34.8ZM429.177 25.4L431.587 29.7811L431.615 29.7658L431.642 29.7501L429.177 25.4ZM454.077 24.7L451.738 29.1189L451.789 29.1461L451.841 29.1721L454.077 24.7ZM462.577 32.4L458.379 35.1163L467.577 49.3311V32.4H462.577ZM462.577 0.799996V-4.2H457.577V0.799996H462.577ZM453.077 66.7L455.547 71.0473L455.563 71.0384L455.579 71.0293L453.077 66.7ZM460.077 59.4L455.702 56.9797L455.682 57.0157L455.663 57.0519L460.077 59.4ZM460.077 38L455.663 40.3481L455.682 40.3843L455.702 40.4203L460.077 38ZM453.077 30.8L450.534 35.1046L450.591 35.1385L450.649 35.1708L453.077 30.8ZM433.077 30.8L435.547 35.1473L435.563 35.1384L435.579 35.1293L433.077 30.8ZM426.077 38L421.702 35.5797L421.682 35.6157L421.663 35.6519L426.077 38ZM426.077 59.4L421.663 61.7481L421.682 61.7843L421.702 61.8203L426.077 59.4ZM433.077 66.7L430.534 71.0046L430.591 71.0385L430.649 71.0708L433.077 66.7ZM464.677 0.799996V75H474.677V0.799996H464.677ZM469.677 70H462.877V80H469.677V70ZM467.877 75V64.6H457.877V75H467.877ZM458.597 62.0157C456.917 64.7983 454.745 66.851 452.042 68.279L456.713 77.121C461.077 74.8157 464.571 71.4683 467.158 67.1843L458.597 62.0157ZM452.007 68.2976C449.351 69.7277 446.249 70.5 442.577 70.5V80.5C447.706 80.5 452.47 79.4057 456.748 77.1024L452.007 68.2976ZM442.577 70.5C438.443 70.5 434.836 69.5596 431.642 67.7499L426.712 76.4501C431.519 79.1738 436.845 80.5 442.577 80.5V70.5ZM431.642 67.7499C428.451 65.9413 425.971 63.4421 424.145 60.1657L415.41 65.0343C418.117 69.8912 421.904 73.7254 426.712 76.4501L431.642 67.7499ZM424.145 60.1657C422.34 56.9273 421.377 53.1495 421.377 48.7H411.377C411.377 54.6505 412.682 60.1394 415.41 65.0343L424.145 60.1657ZM421.377 48.7C421.377 44.2505 422.34 40.4727 424.145 37.2343L415.41 32.3657C412.682 37.2606 411.377 42.7495 411.377 48.7H421.377ZM424.145 37.2343C425.964 33.9703 428.426 31.5194 431.587 29.7811L426.768 21.0189C421.928 23.6806 418.124 27.4964 415.41 32.3657L424.145 37.2343ZM431.642 29.7501C434.836 27.9404 438.443 27 442.577 27V17C436.845 17 431.519 18.3262 426.712 21.0499L431.642 29.7501ZM442.577 27C446.119 27 449.135 27.7407 451.738 29.1189L456.417 20.2811C452.22 18.0593 447.569 17 442.577 17V27ZM451.841 29.1721C454.472 30.4876 456.642 32.4312 458.379 35.1163L466.775 29.6837C464.113 25.5688 460.616 22.379 456.313 20.2279L451.841 29.1721ZM467.577 32.4V0.799996H457.577V32.4H467.577ZM462.577 5.8H469.677V-4.2H462.577V5.8ZM443.177 74.2C447.633 74.2 451.797 73.1784 455.547 71.0473L450.607 62.3527C448.491 63.5549 446.055 64.2 443.177 64.2V74.2ZM455.579 71.0293C459.41 68.8158 462.397 65.6867 464.492 61.7481L455.663 57.0519C454.425 59.38 452.745 61.1175 450.576 62.3707L455.579 71.0293ZM464.453 61.8203C466.642 57.8625 467.677 53.4457 467.677 48.7H457.677C457.677 51.9543 456.979 54.6708 455.702 56.9797L464.453 61.8203ZM467.677 48.7C467.677 43.9543 466.642 39.5375 464.453 35.5797L455.702 40.4203C456.979 42.7292 457.677 45.4457 457.677 48.7H467.677ZM464.492 35.6519C462.388 31.6976 459.379 28.581 455.506 26.4292L450.649 35.1708C452.776 36.3523 454.433 38.0358 455.663 40.3481L464.492 35.6519ZM455.621 26.4954C451.859 24.2722 447.668 23.2 443.177 23.2V33.2C446.02 33.2 448.429 33.8611 450.534 35.1046L455.621 26.4954ZM443.177 23.2C438.636 23.2 434.395 24.2641 430.576 26.4707L435.579 35.1293C437.76 33.8692 440.252 33.2 443.177 33.2V23.2ZM430.607 26.4527C426.824 28.6023 423.853 31.6925 421.702 35.5797L430.453 40.4203C431.769 38.0409 433.464 36.331 435.547 35.1473L430.607 26.4527ZM421.663 35.6519C419.565 39.5959 418.577 43.9866 418.577 48.7H428.577C428.577 45.4134 429.256 42.6708 430.492 40.3481L421.663 35.6519ZM418.577 48.7C418.577 53.4134 419.565 57.8041 421.663 61.7481L430.492 57.0519C429.256 54.7292 428.577 51.9866 428.577 48.7H418.577ZM421.702 61.8203C423.844 65.6924 426.793 68.7942 430.534 71.0046L435.621 62.3954C433.495 61.1391 431.777 59.3743 430.453 56.9797L421.702 61.8203ZM430.649 71.0708C434.456 73.1858 438.671 74.2 443.177 74.2V64.2C440.217 64.2 437.699 63.5475 435.506 62.3292L430.649 71.0708ZM536.851 22.4H541.851V17.4H536.851V22.4ZM530.751 88.4L527.131 84.9503L527.118 84.9643L527.105 84.9784L530.751 88.4ZM499.251 92.7L500.923 87.9879L500.901 87.98L500.878 87.9723L499.251 92.7ZM489.351 86.8L485.191 84.0265L482.917 87.4371L485.815 90.3355L489.351 86.8ZM492.951 81.4L496.486 77.8645L492.174 73.5518L488.791 78.6265L492.951 81.4ZM501.351 86.7L499.575 91.3739L501.351 86.7ZM525.451 83.9L521.798 80.4856L521.78 80.5052L521.762 80.5249L525.451 83.9ZM529.751 63.4H534.751V45.5693L525.48 60.8003L529.751 63.4ZM522.051 70.5L519.778 66.0462L519.76 66.0557L519.741 66.0654L522.051 70.5ZM494.851 67.3L491.346 70.8656L491.376 70.8956L491.407 70.925L494.851 67.3ZM488.951 22.4V17.4H483.951V22.4H488.951ZM496.051 22.4H501.051V17.4H496.051V22.4ZM500.151 62.3L503.769 58.8496L503.769 58.8496L500.151 62.3ZM524.951 61.6L528.558 65.0627L528.575 65.0448L528.592 65.0268L524.951 61.6ZM529.751 22.4V17.4H524.751V22.4H529.751ZM531.851 22.4V68.6H541.851V22.4H531.851ZM531.851 68.6C531.851 76.8959 529.948 81.995 527.131 84.9503L534.37 91.8497C539.687 86.2717 541.851 78.1708 541.851 68.6H531.851ZM527.105 84.9784C524.299 87.9686 519.71 89.9 512.351 89.9V99.9C521.391 99.9 529.07 97.4981 534.397 91.8216L527.105 84.9784ZM512.351 89.9C508.292 89.9 504.493 89.2549 500.923 87.9879L497.579 97.4121C502.275 99.0785 507.209 99.9 512.351 99.9V89.9ZM500.878 87.9723C497.388 86.7706 494.785 85.1635 492.886 83.2645L485.815 90.3355C488.983 93.5032 492.981 95.8294 497.623 97.4277L500.878 87.9723ZM493.511 89.5735L497.111 84.1735L488.791 78.6265L485.191 84.0265L493.511 89.5735ZM489.415 84.9355C492.235 87.7552 495.656 89.8847 499.575 91.3739L503.127 82.0261C500.379 80.982 498.2 79.5781 496.486 77.8645L489.415 84.9355ZM499.575 91.3739C503.512 92.87 507.684 93.6 512.051 93.6V83.6C508.818 83.6 505.856 83.0633 503.127 82.0261L499.575 91.3739ZM512.051 93.6C518.906 93.6 524.978 91.8235 529.14 87.2751L521.762 80.5249C520.19 82.2432 517.328 83.6 512.051 83.6V93.6ZM529.103 87.3144C533.209 82.9223 534.751 76.6213 534.751 69.5H524.751C524.751 75.4454 523.426 78.7444 521.798 80.4856L529.103 87.3144ZM534.751 69.5V63.4H524.751V69.5H534.751ZM525.48 60.8003C524.106 63.058 522.239 64.791 519.778 66.0462L524.323 74.9538C528.396 72.8757 531.663 69.8754 534.022 65.9997L525.48 60.8003ZM519.741 66.0654C517.341 67.3156 514.517 68 511.151 68V78C515.918 78 520.361 77.0177 524.36 74.9346L519.741 66.0654ZM511.151 68C505.237 68 501.151 66.389 498.295 63.675L491.407 70.925C496.55 75.811 503.331 78 511.151 78V68ZM498.356 63.7344C495.671 61.0946 493.951 56.9326 493.951 50.4H483.951C483.951 58.6674 486.164 65.7721 491.346 70.8656L498.356 63.7344ZM493.951 50.4V22.4H483.951V50.4H493.951ZM488.951 27.4H496.051V17.4H488.951V27.4ZM491.051 22.4V49.7H501.051V22.4H491.051ZM491.051 49.7C491.051 56.0038 492.611 61.6384 496.532 65.7504L503.769 58.8496C502.224 57.2283 501.051 54.4628 501.051 49.7H491.051ZM496.532 65.7504C500.455 69.8648 505.82 71.6 511.851 71.6V61.6C507.748 61.6 505.313 60.4686 503.769 58.8496L496.532 65.7504ZM511.851 71.6C518.456 71.6 524.231 69.5693 528.558 65.0627L521.344 58.1373C519.27 60.2974 516.313 61.6 511.851 61.6V71.6ZM528.592 65.0268C532.892 60.4574 534.751 54.3972 534.751 47.5H524.751C524.751 52.6028 523.409 55.9426 521.31 58.1732L528.592 65.0268ZM534.751 47.5V22.4H524.751V47.5H534.751ZM529.751 27.4H536.851V17.4H529.751V27.4ZM558.536 73.7L556.979 78.4515L557.028 78.4675L557.077 78.4824L558.536 73.7ZM549.436 69L545.095 66.5193L543.034 70.1254L546.201 72.8125L549.436 69ZM552.636 63.4L555.73 59.4725L551.173 55.8821L548.295 60.9193L552.636 63.4ZM560.936 67.7L559.326 72.4339L559.369 72.4484L559.412 72.4621L560.936 67.7ZM581.936 67.1L584.652 71.2979L584.667 71.2882L584.682 71.2785L581.936 67.1ZM583.536 56.2L580.202 59.9262L580.258 59.9762L580.315 60.0246L583.536 56.2ZM578.736 53.7L577.254 58.4753L577.33 58.4988L577.406 58.52L578.736 53.7ZM571.036 52L570.114 56.9144L570.164 56.9237L570.214 56.932L571.036 52ZM560.736 49.6L559.155 54.3434L559.21 54.3618L559.266 54.3789L560.736 49.6ZM554.036 45.3L550.319 48.6448L550.35 48.6785L550.381 48.7116L554.036 45.3ZM556.836 26.2L553.801 22.2262L553.801 22.2262L556.836 26.2ZM582.336 23.4L581.012 28.2216L581.057 28.2338L581.101 28.2451L582.336 23.4ZM590.736 26.9L595.128 29.2889L597.312 25.2745L593.509 22.7397L590.736 26.9ZM587.636 32.6L584.79 36.711L589.368 39.8804L592.028 34.9889L587.636 32.6ZM561.836 30.5L559.008 26.3764L558.98 26.3956L558.953 26.4152L561.836 30.5ZM560.336 41.6L556.897 45.2298L556.944 45.2737L556.991 45.3165L560.336 41.6ZM565.236 44.3L563.754 49.0753L563.83 49.0989L563.906 49.12L565.236 44.3ZM573.236 46L574.171 41.0883L574.138 41.082L574.105 41.0761L573.236 46ZM583.336 48.4L581.83 53.1679L581.83 53.1679L583.336 48.4ZM589.836 52.5L586.176 55.9071L586.176 55.9071L589.836 52.5ZM586.736 71.5L589.608 75.5928L589.615 75.5878L589.622 75.5829L586.736 71.5ZM570.836 70.5C567.045 70.5 563.438 69.968 559.995 68.9176L557.077 78.4824C561.501 79.832 566.094 80.5 570.836 80.5V70.5ZM560.092 68.9485C556.607 67.8067 554.219 66.5014 552.671 65.1875L546.201 72.8125C549.052 75.2319 552.731 77.0599 556.979 78.4515L560.092 68.9485ZM553.777 71.4807L556.977 65.8807L548.295 60.9193L545.095 66.5193L553.777 71.4807ZM549.542 67.3275C552.285 69.4889 555.588 71.1628 559.326 72.4339L562.545 62.9661C559.617 61.9705 557.387 60.7777 555.73 59.4725L549.542 67.3275ZM559.412 72.4621C563.252 73.6909 567.234 74.3 571.336 74.3V64.3C568.238 64.3 565.286 63.8424 562.46 62.9379L559.412 72.4621ZM571.336 74.3C576.447 74.3 581.163 73.5558 584.652 71.2979L579.22 62.9021C578.176 63.5775 575.825 64.3 571.336 64.3V74.3ZM584.682 71.2785C588.386 68.8446 590.436 65.16 590.436 60.7H580.436C580.436 61.7066 580.153 62.2887 579.19 62.9215L584.682 71.2785ZM590.436 60.7C590.436 57.5662 589.346 54.5557 586.757 52.3754L580.315 60.0246C580.345 60.0494 580.351 60.0601 580.348 60.0561C580.345 60.0519 580.348 60.053 580.355 60.0699C580.368 60.1004 580.436 60.2784 580.436 60.7H590.436ZM586.87 52.4738C584.934 50.7414 582.609 49.5818 580.066 48.88L577.406 58.52C578.729 58.8849 579.605 59.3919 580.202 59.9262L586.87 52.4738ZM580.218 48.9247C577.98 48.23 575.165 47.6193 571.858 47.068L570.214 56.932C573.306 57.4474 575.626 57.97 577.254 58.4753L580.218 48.9247ZM571.957 47.0856C567.781 46.3026 564.553 45.543 562.206 44.8211L559.266 54.3789C562.119 55.257 565.758 56.0974 570.114 56.9144L571.957 47.0856ZM562.317 44.8566C560.507 44.2533 558.987 43.2772 557.691 41.8884L550.381 48.7116C552.818 51.3228 555.765 53.2133 559.155 54.3434L562.317 44.8566ZM557.752 41.9552C557.01 41.13 556.336 39.6936 556.336 37H546.336C546.336 41.373 547.462 45.47 550.319 48.6448L557.752 41.9552ZM556.336 37C556.336 34.2446 557.372 32.0814 559.871 30.1738L553.801 22.2262C548.966 25.9186 546.336 30.9554 546.336 37H556.336ZM559.871 30.1738C562.368 28.2664 566.255 27 572.136 27V17C564.95 17 558.637 18.5336 553.801 22.2262L559.871 30.1738ZM572.136 27C575.072 27 578.028 27.4023 581.012 28.2216L583.66 18.5784C579.844 17.5311 575.999 17 572.136 17V27ZM581.101 28.2451C584.121 29.015 586.358 29.9909 587.962 31.0602L593.509 22.7397C590.713 20.8757 587.35 19.5183 583.571 18.5549L581.101 28.2451ZM586.344 24.5111L583.244 30.2111L592.028 34.9889L595.128 29.2889L586.344 24.5111ZM590.482 28.489C585.2 24.8324 579.007 23.1 572.136 23.1V33.1C577.265 33.1 581.405 34.3676 584.79 36.711L590.482 28.489ZM572.136 23.1C567.15 23.1 562.538 23.9557 559.008 26.3764L564.664 34.6236C565.8 33.8443 568.055 33.1 572.136 33.1V23.1ZM558.953 26.4152C555.463 28.878 553.436 32.4511 553.436 36.8H563.436C563.436 35.9489 563.675 35.322 564.719 34.5848L558.953 26.4152ZM553.436 36.8C553.436 39.9531 554.485 42.9443 556.897 45.2298L563.775 37.9702C563.654 37.8557 563.436 37.6469 563.436 36.8H553.436ZM556.991 45.3165C558.927 47.0585 561.219 48.2887 563.754 49.0753L566.718 39.5247C565.386 39.1113 564.412 38.5415 563.681 37.8835L556.991 45.3165ZM563.906 49.12C566.061 49.7145 568.905 50.313 572.367 50.9239L574.105 41.0761C570.767 40.487 568.277 39.9522 566.566 39.48L563.906 49.12ZM572.3 50.9117C576.408 51.6942 579.561 52.4514 581.83 53.1679L584.842 43.6321C582.044 42.7486 578.463 41.9058 574.171 41.0883L572.3 50.9117ZM581.83 53.1679C583.545 53.7095 584.968 54.6095 586.176 55.9071L593.495 49.0929C591.103 46.5238 588.193 44.6905 584.842 43.6321L581.83 53.1679ZM586.176 55.9071C586.889 56.6726 587.536 57.9887 587.536 60.5H597.536C597.536 56.2113 596.383 52.194 593.495 49.0929L586.176 55.9071ZM587.536 60.5C587.536 63.4207 586.437 65.5881 583.85 67.4171L589.622 75.5829C594.768 71.9452 597.536 66.7793 597.536 60.5H587.536ZM583.864 67.4072C581.213 69.2672 577.063 70.5 570.836 70.5V80.5C578.209 80.5 584.658 79.0662 589.608 75.5928L583.864 67.4072ZM607.462 73.7L605.905 78.4515L605.954 78.4675L606.003 78.4824L607.462 73.7ZM598.362 69L594.021 66.5193L591.96 70.1254L595.127 72.8125L598.362 69ZM601.562 63.4L604.656 59.4725L600.099 55.8821L597.221 60.9193L601.562 63.4ZM609.862 67.7L608.252 72.4339L608.295 72.4484L608.338 72.4621L609.862 67.7ZM630.862 67.1L633.578 71.2979L633.593 71.2882L633.608 71.2785L630.862 67.1ZM632.462 56.2L629.128 59.9262L629.184 59.9762L629.241 60.0246L632.462 56.2ZM627.662 53.7L626.18 58.4753L626.256 58.4988L626.332 58.52L627.662 53.7ZM619.962 52L619.04 56.9144L619.09 56.9237L619.14 56.932L619.962 52ZM609.662 49.6L608.081 54.3434L608.136 54.3618L608.191 54.3789L609.662 49.6ZM602.962 45.3L599.245 48.6448L599.276 48.6785L599.306 48.7116L602.962 45.3ZM605.762 26.2L602.727 22.2262L602.727 22.2262L605.762 26.2ZM631.262 23.4L629.938 28.2216L629.982 28.2338L630.027 28.2451L631.262 23.4ZM639.662 26.9L644.054 29.2889L646.237 25.2745L642.435 22.7397L639.662 26.9ZM636.562 32.6L633.716 36.711L638.294 39.8804L640.954 34.9889L636.562 32.6ZM610.762 30.5L607.934 26.3764L607.906 26.3956L607.878 26.4152L610.762 30.5ZM609.262 41.6L605.823 45.2298L605.869 45.2737L605.917 45.3165L609.262 41.6ZM614.162 44.3L612.68 49.0753L612.756 49.0989L612.832 49.12L614.162 44.3ZM622.162 46L623.097 41.0883L623.064 41.082L623.031 41.0761L622.162 46ZM632.262 48.4L630.756 53.1679L630.756 53.1679L632.262 48.4ZM638.762 52.5L635.102 55.9071L635.102 55.9071L638.762 52.5ZM635.662 71.5L638.534 75.5928L638.541 75.5878L638.548 75.5829L635.662 71.5ZM619.762 70.5C615.971 70.5 612.364 69.968 608.921 68.9176L606.003 78.4824C610.426 79.832 615.019 80.5 619.762 80.5V70.5ZM609.018 68.9485C605.533 67.8067 603.145 66.5014 601.597 65.1875L595.127 72.8125C597.978 75.2319 601.657 77.0599 605.905 78.4515L609.018 68.9485ZM602.703 71.4807L605.903 65.8807L597.221 60.9193L594.021 66.5193L602.703 71.4807ZM598.467 67.3275C601.211 69.4889 604.514 71.1628 608.252 72.4339L611.471 62.9661C608.543 61.9705 606.313 60.7777 604.656 59.4725L598.467 67.3275ZM608.338 72.4621C612.178 73.6909 616.159 74.3 620.262 74.3V64.3C617.164 64.3 614.212 63.8424 611.386 62.9379L608.338 72.4621ZM620.262 74.3C625.373 74.3 630.088 73.5558 633.578 71.2979L628.145 62.9021C627.102 63.5775 624.751 64.3 620.262 64.3V74.3ZM633.608 71.2785C637.311 68.8446 639.362 65.16 639.362 60.7H629.362C629.362 61.7066 629.079 62.2887 628.116 62.9215L633.608 71.2785ZM639.362 60.7C639.362 57.5662 638.271 54.5557 635.682 52.3754L629.241 60.0246C629.271 60.0494 629.277 60.0601 629.274 60.0561C629.271 60.0519 629.273 60.053 629.28 60.0699C629.293 60.1004 629.362 60.2784 629.362 60.7H639.362ZM635.796 52.4738C633.86 50.7414 631.535 49.5818 628.991 48.88L626.332 58.52C627.655 58.8849 628.531 59.3919 629.128 59.9262L635.796 52.4738ZM629.144 48.9247C626.905 48.23 624.091 47.6193 620.784 47.068L619.14 56.932C622.232 57.4474 624.551 57.97 626.18 58.4753L629.144 48.9247ZM620.883 47.0856C616.707 46.3026 613.478 45.543 611.132 44.8211L608.191 54.3789C611.045 55.257 614.683 56.0974 619.04 56.9144L620.883 47.0856ZM611.243 44.8566C609.433 44.2533 607.913 43.2772 606.617 41.8884L599.306 48.7116C601.744 51.3228 604.69 53.2133 608.081 54.3434L611.243 44.8566ZM606.678 41.9552C605.936 41.13 605.262 39.6936 605.262 37H595.262C595.262 41.373 596.388 45.47 599.245 48.6448L606.678 41.9552ZM605.262 37C605.262 34.2446 606.298 32.0814 608.796 30.1738L602.727 22.2262C597.892 25.9186 595.262 30.9554 595.262 37H605.262ZM608.796 30.1738C611.294 28.2664 615.181 27 621.062 27V17C613.876 17 607.563 18.5336 602.727 22.2262L608.796 30.1738ZM621.062 27C623.998 27 626.953 27.4023 629.938 28.2216L632.585 18.5784C628.77 17.5311 624.925 17 621.062 17V27ZM630.027 28.2451C633.047 29.015 635.284 29.9909 636.888 31.0602L642.435 22.7397C639.639 20.8757 636.276 19.5183 632.497 18.5549L630.027 28.2451ZM635.269 24.5111L632.169 30.2111L640.954 34.9889L644.054 29.2889L635.269 24.5111ZM639.408 28.489C634.126 24.8324 627.933 23.1 621.062 23.1V33.1C626.19 33.1 630.331 34.3676 633.716 36.711L639.408 28.489ZM621.062 23.1C616.076 23.1 611.464 23.9557 607.934 26.3764L613.589 34.6236C614.726 33.8443 616.981 33.1 621.062 33.1V23.1ZM607.878 26.4152C604.389 28.878 602.362 32.4511 602.362 36.8H612.362C612.362 35.9489 612.601 35.322 613.645 34.5848L607.878 26.4152ZM602.362 36.8C602.362 39.9531 603.411 42.9443 605.823 45.2298L612.7 37.9702C612.58 37.8557 612.362 37.6469 612.362 36.8H602.362ZM605.917 45.3165C607.853 47.0585 610.145 48.2887 612.68 49.0753L615.644 39.5247C614.312 39.1113 613.338 38.5415 612.607 37.8835L605.917 45.3165ZM612.832 49.12C614.987 49.7145 617.831 50.313 621.293 50.9239L623.031 41.0761C619.692 40.487 617.203 39.9522 615.491 39.48L612.832 49.12ZM621.226 50.9117C625.334 51.6942 628.487 52.4514 630.756 53.1679L633.767 43.6321C630.97 42.7486 627.389 41.9058 623.097 41.0883L621.226 50.9117ZM630.756 53.1679C632.471 53.7095 633.894 54.6095 635.102 55.9071L642.421 49.0929C640.029 46.5238 637.119 44.6905 633.767 43.6321L630.756 53.1679ZM635.102 55.9071C635.815 56.6726 636.462 57.9887 636.462 60.5H646.462C646.462 56.2113 645.308 52.194 642.421 49.0929L635.102 55.9071ZM636.462 60.5C636.462 63.4207 635.363 65.5881 632.776 67.4171L638.548 75.5829C643.694 71.9452 646.462 66.7793 646.462 60.5H636.462ZM632.79 67.4072C630.139 69.2672 625.989 70.5 619.762 70.5V80.5C627.135 80.5 633.584 79.0662 638.534 75.5928L632.79 67.4072ZM686.088 67.5L688.003 72.1187L688.03 72.1074L688.057 72.0957L686.088 67.5ZM693.188 62.3L696.961 59.0191L693.151 54.6381L689.383 59.0553L693.188 62.3ZM697.188 66.9L701.029 70.1009L703.754 66.831L700.961 63.6191L697.188 66.9ZM688.488 73.3L690.436 77.9048L690.436 77.9048L688.488 73.3ZM662.588 72.1L660.159 76.4708L660.186 76.4856L660.213 76.5001L662.588 72.1ZM652.788 62.5L648.451 64.9883L648.451 64.9883L652.788 62.5ZM652.588 34.9L648.22 32.4657L648.205 32.4932L648.19 32.5209L652.588 34.9ZM661.888 25.4L659.391 21.0678L661.888 25.4ZM687.888 25.2L685.407 29.5412L685.423 29.5506L685.44 29.5599L687.888 25.2ZM696.888 34.1L692.56 36.6052L692.577 36.6334L692.593 36.6614L696.888 34.1ZM700.488 47.1L701.442 52.0081L705.602 51.1992L705.486 46.9631L700.488 47.1ZM657.288 55.5L656.333 50.5919L650.849 51.6584L652.515 56.9914L657.288 55.5ZM664.488 65.6L661.589 69.674L661.633 69.7055L661.678 69.7361L664.488 65.6ZM665.388 30.7L667.901 35.0225L667.916 35.0136L667.931 35.0046L665.388 30.7ZM658.588 37.8L654.194 35.4124L654.185 35.4297L654.176 35.4471L658.588 37.8ZM656.288 50.4L651.338 51.1071L652.081 56.3096L657.24 55.3084L656.288 50.4ZM693.388 43.2L694.34 48.1084L699.191 47.167L698.307 42.3056L693.388 43.2ZM687.288 32.4L683.99 36.1581L684.011 36.1773L684.034 36.1963L687.288 32.4ZM677.088 74.2C680.943 74.2 684.602 73.5288 688.003 72.1187L684.172 62.8813C682.106 63.7379 679.765 64.2 677.088 64.2V74.2ZM688.057 72.0957C691.548 70.5996 694.547 68.4104 696.992 65.5447L689.383 59.0553C687.961 60.7229 686.227 62.0004 684.118 62.9043L688.057 72.0957ZM689.414 65.5809L693.414 70.1809L700.961 63.6191L696.961 59.0191L689.414 65.5809ZM693.346 63.6991C691.54 65.8665 689.297 67.5284 686.539 68.6952L690.436 77.9048C694.611 76.1382 698.168 73.5335 701.029 70.1009L693.346 63.6991ZM686.539 68.6952C683.757 69.8724 680.596 70.5 676.988 70.5V80.5C681.779 80.5 686.285 79.6609 690.436 77.9048L686.539 68.6952ZM676.988 70.5C672.306 70.5 668.341 69.5235 664.962 67.6999L660.213 76.5001C665.234 79.2098 670.869 80.5 676.988 80.5V70.5ZM665.016 67.7292C661.591 65.8264 658.993 63.2685 657.124 60.0117L648.451 64.9883C651.249 69.8648 655.184 73.7069 660.159 76.4708L665.016 67.7292ZM657.124 60.0117C655.266 56.7729 654.288 53.0454 654.288 48.7H644.288C644.288 54.6213 645.642 60.0938 648.451 64.9883L657.124 60.0117ZM654.288 48.7C654.288 44.3041 655.223 40.5372 656.985 37.2791L648.19 32.5209C645.552 37.3962 644.288 42.8292 644.288 48.7H654.288ZM656.955 37.3343C658.793 34.0366 661.255 31.5351 664.384 29.7321L659.391 21.0678C654.653 23.7982 650.915 27.63 648.22 32.4657L656.955 37.3343ZM664.384 29.7321C667.483 27.9464 671.073 27 675.288 27V17C669.502 17 664.159 18.3202 659.391 21.0678L664.384 29.7321ZM675.288 27C679.16 27 682.493 27.876 685.407 29.5412L690.368 20.8588C685.816 18.2573 680.748 17 675.288 17V27ZM685.44 29.5599C688.452 31.2511 690.806 33.5745 692.56 36.6052L701.215 31.5948C698.569 27.0255 694.923 23.4156 690.335 20.8401L685.44 29.5599ZM692.593 36.6614C694.379 39.6548 695.377 43.1375 695.489 47.2369L705.486 46.9631C705.331 41.3292 703.929 36.1452 701.182 31.5386L692.593 36.6614ZM699.533 42.1919L656.333 50.5919L658.242 60.4081L701.442 52.0081L699.533 42.1919ZM652.515 56.9914C654.157 62.2439 657.185 66.5407 661.589 69.674L667.386 61.526C664.856 59.726 663.085 57.2894 662.06 54.0086L652.515 56.9914ZM661.678 69.7361C666.152 72.775 671.363 74.2 677.088 74.2V64.2C673.078 64.2 669.89 63.225 667.297 61.4639L661.678 69.7361ZM675.288 23.1C670.797 23.1 666.606 24.1722 662.844 26.3954L667.931 35.0046C670.036 33.7611 672.445 33.1 675.288 33.1V23.1ZM662.874 26.3775C659.173 28.5293 656.275 31.5849 654.194 35.4124L662.981 40.1876C664.234 37.8818 665.868 36.204 667.901 35.0225L662.874 26.3775ZM654.176 35.4471C652.133 39.2774 651.188 43.5754 651.188 48.2H661.188C661.188 44.9579 661.842 42.3226 662.999 40.1529L654.176 35.4471ZM651.188 48.2C651.188 49.2354 651.218 50.2677 651.338 51.1071L661.237 49.6929C661.238 49.6954 661.233 49.6624 661.226 49.5848C661.22 49.5092 661.213 49.4065 661.207 49.273C661.195 49.0033 661.188 48.6493 661.188 48.2H651.188ZM657.24 55.3084L694.34 48.1084L692.435 38.2916L655.335 45.4916L657.24 55.3084ZM698.307 42.3056C697.31 36.824 694.717 32.1824 690.541 28.6037L684.034 36.1963C686.392 38.2176 687.865 40.776 688.468 44.0944L698.307 42.3056ZM690.585 28.6419C686.322 24.9009 681.118 23.1 675.288 23.1V33.1C678.924 33.1 681.719 34.1658 683.99 36.1581L690.585 28.6419ZM762.339 22.4H767.339V17.4H762.339V22.4ZM756.239 88.4L752.62 84.9503L752.606 84.9643L752.593 84.9784L756.239 88.4ZM724.739 92.7L726.411 87.9879L726.389 87.98L726.367 87.9723L724.739 92.7ZM714.839 86.8L710.679 84.0265L708.405 87.4371L711.304 90.3355L714.839 86.8ZM718.439 81.4L721.975 77.8645L717.662 73.5518L714.279 78.6265L718.439 81.4ZM726.839 86.7L725.063 91.3739L726.839 86.7ZM750.939 83.9L747.286 80.4856L747.268 80.5052L747.25 80.5249L750.939 83.9ZM755.239 63.4H760.239V45.5693L750.968 60.8003L755.239 63.4ZM747.539 70.5L745.267 66.0462L745.248 66.0557L745.229 66.0654L747.539 70.5ZM720.339 67.3L716.834 70.8656L716.864 70.8956L716.895 70.925L720.339 67.3ZM714.439 22.4V17.4H709.439V22.4H714.439ZM721.539 22.4H726.539V17.4H721.539V22.4ZM725.639 62.3L729.258 58.8496L729.258 58.8496L725.639 62.3ZM750.439 61.6L754.046 65.0627L754.063 65.0448L754.08 65.0268L750.439 61.6ZM755.239 22.4V17.4H750.239V22.4H755.239ZM757.339 22.4V68.6H767.339V22.4H757.339ZM757.339 68.6C757.339 76.8959 755.437 81.995 752.62 84.9503L759.858 91.8497C765.175 86.2717 767.339 78.1708 767.339 68.6H757.339ZM752.593 84.9784C749.787 87.9686 745.199 89.9 737.839 89.9V99.9C746.88 99.9 754.558 97.4981 759.885 91.8216L752.593 84.9784ZM737.839 89.9C733.781 89.9 729.982 89.2549 726.411 87.9879L723.067 97.4121C727.763 99.0785 732.697 99.9 737.839 99.9V89.9ZM726.367 87.9723C722.876 86.7706 720.274 85.1635 718.375 83.2645L711.304 90.3355C714.471 93.5032 718.469 95.8294 723.111 97.4277L726.367 87.9723ZM718.999 89.5735L722.599 84.1735L714.279 78.6265L710.679 84.0265L718.999 89.5735ZM714.904 84.9355C717.723 87.7552 721.144 89.8847 725.063 91.3739L728.615 82.0261C725.868 80.982 723.688 79.5781 721.975 77.8645L714.904 84.9355ZM725.063 91.3739C729 92.87 733.172 93.6 737.539 93.6V83.6C734.306 83.6 731.345 83.0633 728.615 82.0261L725.063 91.3739ZM737.539 93.6C744.395 93.6 750.467 91.8235 754.628 87.2751L747.25 80.5249C745.678 82.2432 742.817 83.6 737.539 83.6V93.6ZM754.592 87.3144C758.697 82.9223 760.239 76.6213 760.239 69.5H750.239C750.239 75.4454 748.914 78.7444 747.286 80.4856L754.592 87.3144ZM760.239 69.5V63.4H750.239V69.5H760.239ZM750.968 60.8003C749.594 63.058 747.727 64.791 745.267 66.0462L749.811 74.9538C753.884 72.8757 757.151 69.8754 759.51 65.9997L750.968 60.8003ZM745.229 66.0654C742.829 67.3156 740.005 68 736.639 68V78C741.406 78 745.849 77.0177 749.849 74.9346L745.229 66.0654ZM736.639 68C730.725 68 726.64 66.389 723.783 63.675L716.895 70.925C722.038 75.811 728.82 78 736.639 78V68ZM723.844 63.7344C721.159 61.0946 719.439 56.9326 719.439 50.4H709.439C709.439 58.6674 711.653 65.7721 716.834 70.8656L723.844 63.7344ZM719.439 50.4V22.4H709.439V50.4H719.439ZM714.439 27.4H721.539V17.4H714.439V27.4ZM716.539 22.4V49.7H726.539V22.4H716.539ZM716.539 49.7C716.539 56.0038 718.1 61.6384 722.02 65.7504L729.258 58.8496C727.712 57.2283 726.539 54.4628 726.539 49.7H716.539ZM722.02 65.7504C725.943 69.8648 731.308 71.6 737.339 71.6V61.6C733.237 61.6 730.801 60.4686 729.258 58.8496L722.02 65.7504ZM737.339 71.6C743.944 71.6 749.72 69.5693 754.046 65.0627L746.832 58.1373C744.758 60.2974 741.801 61.6 737.339 61.6V71.6ZM754.08 65.0268C758.381 60.4574 760.239 54.3972 760.239 47.5H750.239C750.239 52.6028 748.897 55.9426 746.798 58.1732L754.08 65.0268ZM760.239 47.5V22.4H750.239V47.5H760.239ZM755.239 27.4H762.339V17.4H755.239V27.4Z" fill="#1D1B1B" mask="url(#path-1-outside-1_22_8)"/>
</svg>
